<?xml version="1.0" standalone="no"?>
<!DOCTYPE svg PUBLIC "-//W3C//DTD SVG 20010904//EN"
 "http://www.w3.org/TR/2001/REC-SVG-20010904/DTD/svg10.dtd">
<svg version="1.0" xmlns="http://www.w3.org/2000/svg"
 width="300.000000pt" height="303.000000pt" viewBox="0 0 300.000000 303.000000"
 preserveAspectRatio="xMidYMid meet">
<metadata>
Created by potrace 1.10, written by Peter Selinger 2001-2011
</metadata>
<g transform="translate(0.000000,303.000000) scale(0.100000,-0.100000)"
fill="#000000" stroke="none" id ="buildco-logo-green">
<path d="M349 2660 c-96 -88 -175 -167 -177 -175 -3 -11 6 -15 35 -15 35 0 49
10 182 136 78 74 147 134 151 132 5 -2 72 -63 149 -135 125 -118 145 -133 175
-133 19 0 37 4 40 9 3 5 -19 32 -49 60 l-54 51 -3 88 -3 87 -52 3 -53 3 0 -42
0 -42 -69 66 c-38 37 -76 67 -84 67 -8 0 -92 -72 -188 -160z m405 44 c11 -28
7 -94 -6 -94 -13 0 -58 39 -58 51 0 9 43 59 51 59 4 0 10 -7 13 -16z"/>
<path d="M1347 2754 c-4 -4 -7 -124 -7 -266 l0 -259 -32 3 c-18 2 -33 -2 -35
-10 -4 -10 43 -12 226 -10 148 2 230 7 229 13 -2 6 -16 10 -31 10 l-28 0 -2
260 -2 260 -156 3 c-85 1 -158 -1 -162 -4z m293 -264 c0 -132 0 -243 0 -247 0
-5 -62 -8 -137 -8 l-138 0 -3 248 -2 247 140 0 140 0 0 -240z"/>
<path d="M1414 2488 c-3 -4 1 -11 10 -14 21 -8 71 -1 71 11 0 12 -74 15 -81 3z"/>
<path d="M2267 2733 c-4 -3 -7 -104 -7 -224 0 -183 -2 -218 -15 -223 -8 -3
-15 -15 -15 -26 0 -20 5 -20 235 -20 l235 0 0 25 c0 14 -4 25 -10 25 -6 0 -11
86 -12 223 l-3 222 -201 2 c-111 2 -204 0 -207 -4z m193 -123 l0 -110 -90 0
-90 0 0 110 0 110 90 0 90 0 0 -110z m204 2 l0 -107 -92 -3 -92 -3 0 111 0
110 93 0 92 0 -1 -108z m-204 -222 l0 -100 -90 0 -90 0 0 100 0 100 90 0 90 0
0 -100z m205 0 l0 -100 -97 0 -97 0 2 100 2 100 95 0 95 0 0 -100z m25 -125
c0 -13 -31 -15 -220 -15 -189 0 -220 2 -220 15 0 13 31 15 220 15 189 0 220
-2 220 -15z"/>
<path d="M2336 2660 c-29 -45 -21 -55 10 -12 31 42 36 52 26 52 -5 0 -21 -18
-36 -40z"/>
<path d="M2365 2644 c-20 -30 -11 -46 10 -18 13 18 20 44 11 44 -2 0 -11 -12
-21 -26z"/>
<path d="M2548 2409 c-15 -21 -24 -40 -20 -43 4 -2 19 14 34 35 15 21 24 40
20 43 -4 2 -19 -14 -34 -35z"/>
<path d="M514 2687 c-5 -6 -59 -58 -119 -114 l-109 -103 55 0 c33 0 63 6 75
15 21 16 90 20 99 6 3 -5 -7 -12 -22 -14 -16 -2 -1 -5 32 -5 39 -1 67 4 79 13
25 19 40 19 32 0 -4 -13 8 -15 74 -15 l80 0 -121 113 c-67 61 -126 113 -133
114 -6 2 -16 -3 -22 -10z m106 -112 c43 -44 50 -56 31 -50 -13 4 -41 2 -61 -5
-31 -10 -42 -10 -68 4 -17 9 -45 16 -62 16 -16 0 -30 4 -30 9 0 5 23 30 52 55
60 52 59 52 138 -29z"/>
<path d="M142 2405 c3 -29 48 -32 55 -4 3 10 9 16 14 14 4 -3 6 -12 3 -19 -3
-9 1 -13 13 -13 10 1 21 11 25 22 6 19 6 18 7 -2 1 -13 7 -23 16 -23 18 0 20
16 4 26 -8 4 -7 9 2 15 10 6 6 9 -13 9 -14 0 -29 -6 -31 -12 -4 -10 -7 -10
-14 -1 -5 7 -25 12 -46 11 -31 -1 -36 -4 -35 -23z"/>
<path d="M310 2411 c0 -14 7 -18 28 -16 40 3 44 4 38 13 -3 5 8 9 24 9 17 0
30 -4 30 -9 0 -5 -4 -6 -10 -3 -5 3 -10 2 -10 -3 0 -5 12 -12 26 -15 20 -3 28
0 31 14 5 19 6 19 19 2 7 -10 14 -13 14 -8 0 6 5 3 10 -5 8 -12 10 -12 10 -1
0 11 3 11 17 0 15 -12 16 -12 10 4 -4 10 -7 23 -7 28 0 5 -10 9 -22 8 -13 0
-17 -3 -10 -6 17 -7 15 -20 -3 -20 -8 0 -15 6 -15 13 0 8 -21 12 -69 12 -56 0
-71 -3 -74 -17 -4 -14 -5 -14 -6 2 -1 23 -31 22 -31 -2z"/>
<path d="M559 2402 c5 -25 6 -25 9 -4 2 12 8 22 13 22 5 0 9 -10 9 -22 0 -17
3 -19 9 -9 6 9 10 10 16 2 5 -9 10 -9 20 -1 24 20 6 37 -39 38 -42 1 -43 0
-37 -26z"/>
<path d="M653 2403 c0 -16 2 -23 4 -16 2 7 11 9 19 6 9 -3 14 2 14 16 0 12 -5
21 -11 21 -5 0 -7 -6 -3 -12 6 -10 4 -10 -8 0 -13 11 -15 9 -15 -15z"/>
<path d="M712 2413 c2 -10 12 -18 23 -18 11 0 19 6 18 13 -2 6 4 12 12 12 9 0
15 -10 16 -22 0 -13 3 -17 6 -10 2 6 10 9 16 5 8 -5 8 -2 0 8 -10 13 -10 16 2
16 8 0 15 -6 15 -14 0 -7 4 -13 9 -13 5 0 7 9 4 20 -4 16 -14 20 -49 20 -33 0
-44 -4 -44 -16 0 -8 -5 -12 -10 -9 -6 4 -8 11 -5 16 4 5 1 9 -5 9 -6 0 -10 -8
-8 -17z"/>
<path d="M848 2423 c6 -3 12 -14 13 -26 0 -12 3 -16 6 -9 4 9 8 10 18 2 10 -8
15 -8 21 1 4 8 3 9 -4 5 -7 -4 -12 -1 -12 8 0 9 7 16 15 16 8 0 15 -9 15 -20
0 -11 7 -20 15 -20 18 0 20 16 4 26 -8 4 -7 9 2 15 9 5 -9 8 -46 7 -33 0 -54
-3 -47 -5z"/>
<path d="M287 2353 c-4 -3 -7 -26 -7 -49 0 -24 -4 -46 -10 -49 -5 -3 -10 -22
-10 -41 l0 -34 275 0 275 0 0 33 c0 19 -3 37 -7 41 -5 4 -8 29 -8 54 l0 47
-92 3 c-51 1 -93 -1 -93 -5 0 -4 14 -22 31 -39 20 -20 29 -39 26 -48 -11 -28
-33 -18 -85 39 -33 35 -60 55 -74 55 -21 0 -21 -1 -6 -16 15 -16 14 -20 -14
-55 -33 -41 -58 -49 -78 -24 -10 12 -6 21 24 51 20 20 36 38 36 40 0 7 -176 4
-183 -3z m91 -68 c2 -16 8 -34 13 -39 18 -19 8 -26 -37 -26 l-47 0 7 42 c9 53
13 60 39 56 16 -2 23 -11 25 -33z m371 18 c5 -10 11 -31 12 -48 4 -29 2 -30
-38 -33 -40 -3 -56 9 -33 23 6 3 10 19 10 34 0 43 30 58 49 24z m-172 -45 c13
-12 23 -25 23 -30 0 -4 -25 -8 -55 -8 -30 0 -55 3 -55 7 0 11 43 53 54 53 5 0
20 -10 33 -22z"/>
<path d="M1052 1978 c-9 -9 -12 -123 -12 -450 0 -422 1 -438 19 -448 27 -14
855 -14 882 0 18 10 19 26 19 448 0 327 -3 441 -12 450 -17 17 -879 17 -896 0z
m866 -151 l3 -118 -80 7 -79 6 -39 -37 -38 -37 -20 26 c-11 13 -33 30 -48 35
-37 14 -169 16 -193 3 -14 -7 -25 -7 -39 0 -29 17 -107 10 -128 -10 -16 -17
-16 -20 -2 -50 9 -17 15 -46 13 -64 -3 -29 -6 -33 -33 -33 -28 0 -30 3 -33 42
-2 23 2 52 8 63 18 34 -11 58 -74 62 l-51 3 0 110 0 110 335 5 c184 3 371 3
415 0 l80 -5 3 -118z m-718 -146 c0 -5 -9 -11 -20 -14 -17 -4 -20 -14 -20 -61
0 -53 -1 -56 -25 -56 -24 0 -25 3 -25 60 0 47 -3 60 -15 60 -8 0 -15 5 -15 10
0 6 27 10 60 10 33 0 60 -4 60 -9z m190 -1 c0 -5 -9 -10 -20 -10 -18 0 -20 -7
-20 -60 0 -57 -1 -60 -25 -60 -24 0 -25 3 -25 60 0 46 -3 60 -14 60 -8 0 -18
5 -21 10 -4 6 18 10 59 10 37 0 66 -4 66 -10z m227 -10 c37 -22 49 -54 34 -93
-8 -19 -18 -27 -35 -27 -23 0 -24 2 -13 30 9 25 9 36 -4 58 -12 22 -22 27 -54
27 l-40 0 -3 -57 c-3 -50 -6 -58 -22 -58 -18 0 -20 7 -20 56 0 47 -3 57 -20
61 -45 12 -15 23 63 23 64 0 89 -4 114 -20z m246 9 c16 -9 22 -9 25 0 9 28 22
6 22 -39 0 -58 -13 -65 -30 -16 -12 38 -51 58 -86 45 -44 -16 -39 -70 10 -97
l31 -17 -33 -3 c-45 -4 -60 3 -72 33 -11 29 2 72 28 91 21 17 76 18 105 3z
m-445 -84 c-4 -56 -28 -58 -28 -2 0 24 3 47 7 51 13 13 24 -12 21 -49z m442 4
c21 -23 44 -38 49 -34 7 4 11 -4 11 -19 0 -29 -12 -33 -30 -11 -7 8 -18 15
-24 15 -12 0 -56 63 -56 80 0 17 10 11 50 -31z m-296 -31 c-3 -11 -8 -17 -12
-14 -8 9 -12 58 -5 69 9 15 24 -33 17 -55z m-294 -60 c0 -14 -8 -18 -35 -18
-27 0 -35 4 -35 18 0 13 9 17 35 18 28 1 35 -3 35 -18z m200 6 c0 -7 -4 -16
-10 -19 -5 -3 -10 -1 -10 6 0 7 -4 8 -12 2 -29 -21 -89 -10 -75 15 9 13 107 9
107 -4z m160 -4 c0 -23 -90 -24 -91 -1 0 12 -2 11 -9 -4 -5 -11 -9 -17 -9 -13
-1 3 -4 13 -7 21 -5 13 5 15 55 14 47 -2 61 -5 61 -17z m190 8 c0 6 5 12 11
12 6 0 9 -7 5 -15 -3 -8 -1 -15 4 -15 6 0 10 7 10 15 0 8 7 15 15 15 8 0 15
-9 15 -20 0 -18 -6 -20 -40 -18 -33 1 -40 6 -40 22 0 17 2 18 10 6 6 -10 10
-11 10 -2z m-556 -63 c3 -8 -1 -33 -9 -55 -14 -39 -13 -41 10 -56 28 -18 93
-21 123 -5 14 7 23 8 27 1 3 -5 31 -10 61 -10 42 0 58 5 71 20 21 25 28 25 51
2 16 -16 35 -18 153 -17 74 1 142 5 152 9 16 8 17 0 15 -110 l-3 -119 -415 0
-415 0 -3 108 -3 107 54 0 c64 0 96 24 78 59 -19 35 -14 69 12 74 12 2 25 5
28 6 4 0 9 -6 13 -14z m154 -26 c-1 -13 -7 -23 -13 -22 -13 3 -18 30 -11 50
10 24 29 1 24 -28z m416 26 c7 -20 -3 -45 -20 -45 -13 0 -34 30 -34 49 0 17
47 13 54 -4z m-674 -31 c0 -27 5 -37 20 -41 40 -11 18 -23 -40 -23 -33 0 -60
4 -60 10 0 6 7 10 15 10 11 0 15 11 15 40 0 36 3 40 25 40 22 0 25 -4 25 -36z
m190 -4 c0 -33 3 -40 20 -40 11 0 20 -4 20 -10 0 -6 -28 -10 -65 -10 -37 0
-65 4 -65 10 0 6 9 10 20 10 17 0 20 7 20 40 0 36 3 40 25 40 23 0 25 -4 25
-40z m152 4 c-4 -29 -1 -36 17 -41 41 -11 20 -23 -39 -23 -58 0 -80 12 -40 23
15 4 20 14 20 41 0 31 3 36 23 36 20 0 23 -4 19 -36z m144 9 c11 -51 13 -55
34 -48 24 7 27 -10 4 -19 -45 -17 -74 5 -88 67 -6 24 -4 27 19 27 19 0 26 -6
31 -27z m102 0 c5 -31 38 -56 74 -56 37 0 61 28 53 61 -4 18 -1 22 20 22 35 0
34 -42 -1 -75 -30 -28 -89 -34 -127 -14 -16 9 -22 9 -25 0 -9 -28 -22 -6 -22
40 0 36 4 49 13 47 6 -3 13 -14 15 -25z"/>
<path d="M2406 1869 c-14 -17 -26 -34 -26 -39 0 -15 101 -225 117 -242 23 -25
53 -22 85 9 23 22 30 24 43 13 8 -7 12 -17 9 -22 -10 -15 87 -108 112 -108 29
0 54 25 54 54 0 25 -93 122 -108 112 -5 -3 -15 1 -22 9 -11 13 -8 20 14 44 43
44 34 79 -29 113 -55 29 -75 34 -75 17 0 -5 25 -21 55 -35 62 -29 69 -47 30
-84 -23 -22 -26 -22 -43 -7 -24 22 -39 21 -51 -1 -7 -14 -6 -25 6 -41 15 -22
14 -25 -11 -49 -37 -38 -51 -25 -112 106 l-53 112 24 28 23 27 56 -27 c38 -19
56 -24 56 -15 0 15 -81 57 -109 57 -11 0 -31 -14 -45 -31z m261 -255 c-10 -10
-77 56 -77 75 0 10 16 0 42 -26 23 -23 39 -46 35 -49z m77 -33 c41 -42 45 -74
11 -79 -13 -2 -35 12 -59 37 -39 40 -39 41 -21 61 10 11 21 20 25 20 3 0 23
-18 44 -39z"/>
<path d="M330 1790 c-28 -28 -31 -50 -28 -190 3 -121 4 -125 26 -128 14 -2 22
-10 22 -22 0 -11 9 -24 21 -30 28 -16 49 4 49 46 0 23 5 34 14 34 26 0 46 30
46 71 l0 39 128 0 c86 0 132 4 140 12 9 9 12 8 12 -5 0 -27 -33 -37 -121 -37
-75 0 -84 -2 -105 -26 -13 -14 -24 -32 -24 -40 0 -7 -5 -14 -10 -14 -7 0 -10
-43 -8 -121 l3 -122 43 -1 42 -1 0 122 c0 72 -4 124 -10 128 -6 4 -8 10 -5 15
3 5 1 11 -5 15 -25 16 8 25 91 25 77 0 92 3 110 21 19 19 21 30 17 101 -3 73
-6 82 -31 104 -27 23 -32 24 -213 24 -170 0 -186 -2 -204 -20z m52 -17 c25
-29 30 -70 14 -108 -17 -40 -49 -47 -66 -16 -15 29 -12 93 6 119 18 27 26 27
46 5z m352 2 c23 -23 30 -79 14 -112 l-13 -28 -168 -3 c-164 -2 -168 -2 -157
17 13 25 13 108 0 116 -31 19 4 25 149 25 130 0 162 -3 175 -15z m-331 -165
l58 0 -3 -42 c-3 -47 -30 -62 -36 -20 -7 45 -20 10 -16 -41 5 -54 -5 -85 -25
-73 -6 4 -11 25 -11 47 0 21 -4 39 -10 39 -5 0 -10 -7 -10 -15 0 -8 -7 -15
-15 -15 -12 0 -15 15 -15 72 0 56 3 69 12 60 7 -7 38 -12 71 -12z m157 -230
l0 -110 -25 0 -25 0 0 103 c0 57 3 107 7 110 3 4 15 7 25 7 16 0 18 -10 18
-110z"/>
<path d="M341 1731 c-12 -22 1 -71 19 -71 18 0 35 49 24 68 -16 24 -31 25 -43
3z"/>
<path d="M2135 1758 c-2 -7 -3 -128 -2 -268 l2 -255 330 0 330 0 3 123 c2 79
-1 122 -8 122 -5 0 -10 -4 -10 -10 0 -6 -35 -10 -85 -10 l-85 0 0 40 c0 22 5
40 10 40 6 0 10 5 10 10 0 6 -70 10 -190 10 l-190 0 0 45 0 45 101 0 c64 0 98
4 94 10 -3 6 -28 10 -56 10 l-49 0 0 40 c0 33 3 40 20 40 11 0 20 5 20 10 0
16 -240 13 -245 -2z m185 -48 l0 -40 -85 0 -85 0 0 33 c0 19 3 37 7 40 3 4 42
7 85 7 l78 0 0 -40z m-95 -105 c0 -39 -1 -40 -35 -40 -31 0 -35 3 -38 28 -5
46 4 59 40 55 31 -3 33 -5 33 -43z m95 -105 l0 -40 -85 0 -85 0 0 40 0 40 85
0 85 0 0 -40z m270 0 l0 -40 -79 0 c-44 0 -83 -4 -86 -10 -4 -6 10 -10 35 -10
l41 0 -3 -41 -3 -42 -120 0 -120 0 -3 42 -3 41 81 0 c52 0 79 4 75 10 -3 6
-19 10 -36 10 -27 0 -29 2 -29 40 l0 40 125 0 125 0 0 -40z m-365 -105 c0 -39
-1 -40 -35 -40 -31 0 -35 3 -38 28 -5 46 4 59 40 55 31 -3 33 -5 33 -43z m460
0 l0 -40 -80 1 -80 1 -3 42 -3 42 83 -3 83 -3 0 -40z m93 3 c-3 -40 -5 -43
-33 -43 -28 1 -30 4 -33 43 l-3 42 36 0 36 0 -3 -42z m-458 -108 l0 -41 -82 3
-83 3 -3 38 -3 37 85 0 86 0 0 -40z m270 0 l0 -40 -125 0 -125 0 0 40 0 40
125 0 125 0 0 -40z m190 0 l0 -41 -82 3 -83 3 -3 38 -3 37 85 0 86 0 0 -40z"/>
<path d="M950 1011 c20 -5 26 -15 31 -46 l6 -40 2 36 c1 40 -13 59 -43 58 -18
-1 -17 -2 4 -8z"/>
<path d="M984 800 c0 -69 1 -97 3 -62 2 34 2 90 0 125 -2 34 -3 6 -3 -63z"/>
<path d="M712 860 c-18 -11 -30 -25 -27 -30 6 -10 75 27 75 41 0 14 -12 11
-48 -11z"/>
<path d="M2430 615 c0 -157 4 -245 10 -245 6 0 10 88 10 245 0 157 -4 245 -10
245 -6 0 -10 -88 -10 -245z"/>
<path d="M760 835 c-7 -9 -10 -18 -7 -21 10 -11 37 5 37 21 0 19 -14 19 -30 0z"/>
<path d="M664 789 c-3 -6 -1 -16 5 -22 8 -8 11 -8 11 1 0 7 7 12 15 12 9 0 15
-9 15 -25 0 -14 5 -25 10 -25 6 0 10 16 10 35 0 32 -2 35 -29 35 -17 0 -33 -5
-37 -11z"/>
<path d="M1588 750 l-48 -50 -110 0 -110 0 0 40 c0 43 -12 50 -46 26 -17 -13
-19 -30 -22 -183 -4 -224 -9 -218 152 -218 64 0 116 -3 116 -6 0 -4 -7 -12
-15 -19 -31 -26 -12 -31 113 -28 l127 3 3 128 c1 70 -1 127 -6 127 -4 0 -13
-5 -20 -12 -9 -9 -12 5 -12 65 l0 77 -32 0 -32 0 27 28 c25 26 26 29 11 50
-23 33 -44 27 -96 -28z m81 16 c9 -10 9 -16 1 -21 -13 -8 -42 14 -34 26 8 13
20 11 33 -5z m-359 -226 c6 0 10 33 10 75 l0 75 100 0 c91 0 123 -9 85 -24 -8
-3 -15 -13 -15 -23 0 -12 17 -1 55 37 49 48 57 53 70 39 13 -13 7 -23 -59 -88
-65 -64 -77 -73 -91 -61 -14 12 -14 15 1 31 10 11 14 22 11 26 -12 11 -44 -26
-56 -66 -6 -22 -19 -42 -29 -44 -9 -3 33 -4 93 -4 106 1 107 1 35 7 -41 4 -68
7 -60 8 9 1 51 38 95 82 67 68 84 80 109 78 28 -3 28 -3 31 -80 l3 -77 -55
-52 c-30 -28 -52 -54 -48 -57 3 -3 35 23 70 58 61 60 65 63 65 38 0 -15 -5
-30 -11 -34 -8 -4 -7 -9 2 -15 12 -8 11 -11 -1 -19 -13 -9 -13 -11 0 -21 12
-9 13 -12 1 -16 -11 -5 -11 -7 0 -14 12 -8 11 -11 -1 -20 -11 -8 -12 -12 -2
-16 6 -2 12 -11 12 -19 0 -11 -21 -14 -107 -14 l-107 0 39 40 c26 27 34 40 23
40 -9 0 -18 -7 -22 -15 -7 -20 -243 -22 -270 -2 -23 17 -17 49 12 62 16 7 22
18 22 43 0 20 -4 31 -10 27 -5 -3 -10 -17 -10 -30 0 -12 -7 -25 -15 -29 -13
-5 -15 14 -15 132 0 97 4 142 13 151 10 10 13 -10 15 -98 1 -63 7 -111 12
-111z"/>
<path d="M1642 417 c-23 -23 -42 -46 -42 -50 0 -4 20 -7 45 -7 l45 0 0 50 c0
28 -1 50 -3 50 -2 0 -22 -19 -45 -43z m38 -12 c0 -20 -5 -25 -27 -25 l-26 0
23 25 c13 14 25 25 27 25 2 0 3 -11 3 -25z"/>
<path d="M462 765 c-57 -26 -246 -164 -237 -173 3 -3 50 25 106 63 55 37 123
77 150 88 48 20 51 21 95 4 25 -9 93 -48 150 -87 103 -70 158 -93 119 -50 -30
33 -208 148 -254 165 -57 20 -67 19 -129 -10z"/>
<path d="M525 650 c-8 -13 20 -24 40 -16 8 3 15 2 15 -3 0 -5 -28 -11 -61 -13
-50 -4 -66 -9 -81 -28 -25 -31 -22 -103 5 -108 30 -6 67 7 67 23 0 11 12 15
43 16 23 1 53 4 67 8 23 7 21 8 -15 14 -22 4 -55 7 -72 7 -29 0 -33 -3 -33
-25 0 -21 -5 -25 -30 -25 -27 0 -30 3 -30 29 0 50 21 61 117 61 63 0 84 3 80
13 -2 6 -11 11 -21 9 -9 -2 -16 4 -16 13 0 10 10 15 33 16 31 1 31 2 -8 10
-56 11 -93 11 -100 -1z"/>
<path d="M2290 653 c-25 -3 -45 -16 -71 -44 -20 -21 -44 -39 -53 -39 -9 0 -16
-6 -16 -14 0 -7 -12 -21 -26 -31 -15 -9 -23 -20 -18 -24 11 -8 12 -42 1 -58
-5 -7 -4 -13 2 -13 5 0 12 6 14 13 3 6 6 3 7 -8 1 -18 2 -18 16 5 14 22 15 23
11 4 -6 -28 23 -26 34 2 7 17 8 17 8 -3 1 -37 28 -27 33 12 2 19 2 36 -2 36
-36 9 -47 5 -43 -15 4 -20 4 -20 -8 -2 -11 18 -12 18 -31 -5 -11 -13 -18 -17
-15 -9 2 8 0 23 -4 32 -10 19 6 35 17 17 5 -8 3 -9 -6 -4 -9 5 -11 4 -6 -4 11
-17 25 -4 21 20 -3 17 0 19 18 13 12 -4 30 -8 39 -8 9 0 16 -4 15 -9 -1 -5 4
-12 12 -14 10 -4 12 2 7 24 -4 16 -2 42 4 58 10 25 14 27 50 22 39 -5 40 -4
40 24 0 16 -3 28 -7 27 -5 0 -24 -3 -43 -5z m30 -23 c0 -5 -13 -10 -28 -10
-15 0 -33 -5 -40 -12 -6 -6 -14 -9 -17 -6 -3 3 1 13 10 22 18 17 75 22 75 6z
m-87 -64 c-3 -14 -12 -27 -20 -30 -9 -4 -11 -2 -7 6 5 7 2 9 -9 5 -25 -9 -9
23 17 33 12 5 22 9 22 9 1 1 -1 -10 -3 -23z"/>
<path d="M2488 643 c8 -3 12 -28 12 -73 0 -45 -4 -70 -12 -73 -7 -3 2 -6 21
-6 26 -1 31 2 23 12 -5 6 -10 37 -10 67 0 30 5 61 10 68 8 9 3 12 -23 11 -19
0 -28 -3 -21 -6z"/>
<path d="M2578 643 c8 -3 12 -28 12 -73 0 -45 -4 -70 -12 -73 -7 -3 1 -6 17
-6 l30 -1 0 80 0 80 -30 -1 c-16 0 -24 -3 -17 -6z"/>
<path d="M2658 639 c16 -17 16 -121 0 -137 -9 -9 -4 -12 22 -11 19 0 29 3 23
6 -9 3 -13 28 -13 75 0 66 1 69 22 66 29 -4 36 -37 12 -55 -12 -9 -15 -17 -9
-21 6 -4 15 -20 20 -37 6 -17 19 -31 30 -33 11 -2 16 0 10 5 -5 4 -15 23 -22
41 -9 26 -9 38 0 53 20 32 -2 54 -59 57 -39 3 -47 1 -36 -9z"/>
<path d="M2807 643 c-18 -17 -4 -53 30 -80 25 -21 34 -35 30 -46 -10 -26 -46
-21 -57 8 -12 33 -20 32 -20 -2 0 -25 4 -28 36 -31 70 -5 86 40 29 84 -40 30
-47 64 -14 64 12 0 23 -8 26 -20 6 -23 23 -17 23 9 0 14 -9 18 -38 19 -22 1
-42 -1 -45 -5z"/>
<path d="M290 493 c0 -127 13 -178 24 -97 3 26 6 84 6 130 0 68 -3 84 -15 84
-12 0 -15 -20 -15 -117z"/>
<path d="M760 493 c0 -135 14 -182 25 -82 9 90 3 191 -12 197 -10 3 -13 -24
-13 -115z"/>
<path d="M443 435 c-13 -28 -14 -37 -3 -50 33 -40 71 6 45 55 -9 16 -18 30
-20 30 -3 0 -13 -16 -22 -35z"/>
<path d="M1954 295 c0 -88 2 -123 3 -77 2 46 2 118 0 160 -1 42 -3 5 -3 -83z"/>
<path d="M450 330 c-175 -4 -219 -7 -171 -12 98 -12 571 -10 571 2 0 6 -3 10
-7 11 -48 3 -201 3 -393 -1z"/>
<path d="M2055 235 c0 -14 3 -25 8 -25 4 0 7 6 7 13 0 8 4 7 10 -3 8 -12 10
-12 10 -1 0 9 4 10 13 4 18 -15 49 -12 43 4 -4 9 -1 11 5 7 7 -4 10 -1 7 6 -6
18 -50 23 -60 8 -6 -10 -8 -9 -8 2 0 13 -1 13 -10 0 -6 -10 -10 -11 -10 -2 0
6 -3 12 -7 12 -5 0 -8 -11 -8 -25z"/>
<path d="M2171 241 c-13 -23 -5 -31 31 -31 28 0 37 13 17 26 -8 4 -7 9 2 15
10 6 6 9 -13 9 -17 0 -31 -7 -37 -19z"/>
<path d="M2245 235 c0 -20 5 -22 50 -23 29 0 42 2 30 6 -23 8 -32 32 -11 32 7
0 19 -7 26 -15 7 -8 16 -13 20 -10 5 3 11 1 15 -5 10 -16 21 -12 38 13 15 23
15 24 -14 25 -16 0 -29 -4 -29 -9 0 -5 -7 -9 -15 -9 -8 0 -15 4 -15 10 0 5
-21 9 -47 9 -43 -1 -48 -4 -48 -24z"/>
<path d="M2455 241 c-5 -18 -9 -20 -21 -10 -8 7 -14 7 -14 1 0 -16 33 -24 42
-10 6 10 8 10 8 1 0 -7 9 -13 19 -13 14 0 18 5 14 20 -3 11 0 20 6 20 6 0 11
-8 11 -18 0 -16 8 -19 43 -19 23 0 36 2 30 4 -7 3 -13 12 -13 21 1 14 5 12 20
-7 l20 -23 0 28 c0 23 -2 26 -10 14 -5 -8 -10 -10 -10 -5 0 6 -26 12 -59 13
-56 1 -59 0 -54 -21 4 -21 4 -21 -10 2 l-15 24 -7 -22z"/>
<path d="M2644 238 c3 -20 9 -23 53 -24 46 -1 50 0 45 19 -3 14 -1 18 6 13 7
-4 12 -15 12 -24 0 -12 3 -13 11 -5 22 22 -15 43 -75 43 -52 0 -56 -1 -52 -22z"/>
<path d="M2778 253 c6 -3 12 -13 12 -23 0 -13 8 -17 28 -17 15 0 21 2 15 4
-18 6 -16 33 2 33 8 0 15 -9 15 -20 0 -11 6 -20 14 -20 22 0 30 19 11 26 -13
6 -14 8 -3 15 7 5 -12 8 -47 7 -33 0 -54 -3 -47 -5z"/>
</g>
</svg>
